<svg width="1600" height="980" viewBox="0 0 1600 980" fill="none" xmlns="http://www.w3.org/2000/svg">
  <defs>
    <linearGradient id="bg" x1="0" y1="0" x2="1600" y2="980" gradientUnits="userSpaceOnUse">
      <stop stop-color="#07111D"/>
      <stop offset="1" stop-color="#12243A"/>
    </linearGradient>
    <linearGradient id="lightButton" x1="0" y1="0" x2="1" y2="1">
      <stop stop-color="#1D4ED8"/>
      <stop offset="1" stop-color="#2563EB"/>
    </linearGradient>
    <linearGradient id="darkButton" x1="0" y1="0" x2="1" y2="1">
      <stop stop-color="#3B82F6"/>
      <stop offset="1" stop-color="#2563EB"/>
    </linearGradient>
    <filter id="glowLight" x="-50%" y="-50%" width="200%" height="200%">
      <feDropShadow dx="0" dy="0" stdDeviation="16" flood-color="#2563EB" flood-opacity="0.35"/>
    </filter>
    <filter id="glowDark" x="-50%" y="-50%" width="200%" height="200%">
      <feDropShadow dx="0" dy="0" stdDeviation="18" flood-color="#3B82F6" flood-opacity="0.45"/>
    </filter>
  </defs>

  <rect width="1600" height="980" fill="url(#bg)"/>

  <text x="800" y="70" text-anchor="middle" fill="#F8FAFC" font-family="Segoe UI, Inter, Arial" font-size="34" font-weight="700">
    Previa do neon em azul cobalto
  </text>
  <text x="800" y="108" text-anchor="middle" fill="#B8C7DA" font-family="Segoe UI, Inter, Arial" font-size="18">
    Proposta visual sem alterar o codigo ainda
  </text>

  <g transform="translate(80 150)">
    <text x="320" y="-18" text-anchor="middle" fill="#E8F1FB" font-family="Segoe UI, Inter, Arial" font-size="24" font-weight="700">
      Tema claro
    </text>
    <text x="320" y="14" text-anchor="middle" fill="#9FB4CC" font-family="Segoe UI, Inter, Arial" font-size="16">
      Cobalto proposto: PRIMARY #1D4ED8 | NEON #2563EB
    </text>

    <rect x="0" y="40" width="640" height="700" rx="28" fill="#EAF3FF"/>
    <rect x="0" y="40" width="190" height="700" rx="28" fill="#0F3D6E"/>
    <rect x="0" y="40" width="190" height="700" rx="28" fill="#0F3D6E"/>

    <text x="28" y="92" fill="#FFFFFF" font-family="Segoe UI, Inter, Arial" font-size="26" font-weight="700">
      Ferragens Pinheiro
    </text>

    <rect x="22" y="132" width="146" height="44" rx="12" fill="#1E5FA8" stroke="#2563EB" stroke-width="2.5"/>
    <text x="44" y="160" fill="#FFFFFF" font-family="Segoe UI, Inter, Arial" font-size="16" font-weight="700">
      Nova requisicao
    </text>

    <rect x="22" y="188" width="146" height="44" rx="12" fill="rgba(255,255,255,0.08)"/>
    <text x="44" y="216" fill="#EAF3FF" font-family="Segoe UI, Inter, Arial" font-size="16" font-weight="600">
      Atualizacoes
    </text>

    <rect x="22" y="244" width="146" height="44" rx="12" fill="rgba(255,255,255,0.08)"/>
    <text x="44" y="272" fill="#EAF3FF" font-family="Segoe UI, Inter, Arial" font-size="16" font-weight="600">
      Configuracoes
    </text>

    <rect x="230" y="88" width="370" height="118" rx="24" fill="#FFFFFF" stroke="#C5D7EB"/>
    <text x="258" y="128" fill="#102033" font-family="Segoe UI, Inter, Arial" font-size="25" font-weight="700">
      Dashboard
    </text>
    <text x="258" y="156" fill="#61758E" font-family="Segoe UI, Inter, Arial" font-size="15">
      Mesmo layout, com o brilho migrando do ciano para o cobalto.
    </text>

    <rect x="258" y="171" width="126" height="10" rx="5" fill="#DBEEFF"/>
    <rect x="258" y="171" width="92" height="10" rx="5" fill="#2563EB"/>

    <g filter="url(#glowLight)">
      <rect x="230" y="236" width="370" height="178" rx="26" fill="#FFFFFF" stroke="#2563EB" stroke-width="2.5"/>
    </g>
    <text x="258" y="278" fill="#102033" font-family="Segoe UI, Inter, Arial" font-size="23" font-weight="700">
      Cards neon
    </text>
    <text x="258" y="307" fill="#61758E" font-family="Segoe UI, Inter, Arial" font-size="15">
      Borda e glow em azul cobalto mais corporativo.
    </text>
    <rect x="258" y="332" width="136" height="42" rx="14" fill="url(#lightButton)"/>
    <text x="326" y="359" text-anchor="middle" fill="#FFFFFF" font-family="Segoe UI, Inter, Arial" font-size="16" font-weight="700">
      Acao primaria
    </text>
    <rect x="412" y="332" width="138" height="42" rx="14" fill="#EDF5FF" stroke="#2563EB" stroke-width="1.5"/>
    <text x="481" y="359" text-anchor="middle" fill="#1D4ED8" font-family="Segoe UI, Inter, Arial" font-size="16" font-weight="700">
      Secundaria
    </text>
    <rect x="258" y="389" width="292" height="1" fill="#D6E4F1"/>

    <rect x="258" y="412" width="122" height="38" rx="19" fill="#DBEEFF"/>
    <text x="319" y="436" text-anchor="middle" fill="#1D4ED8" font-family="Segoe UI, Inter, Arial" font-size="15" font-weight="700">
      Selecionado
    </text>
    <rect x="392" y="412" width="158" height="38" rx="19" fill="#F4F8FF"/>
    <text x="471" y="436" text-anchor="middle" fill="#61758E" font-family="Segoe UI, Inter, Arial" font-size="15" font-weight="600">
      Notificacao badge
    </text>
    <circle cx="534" cy="421" r="7" fill="#2563EB"/>

    <rect x="230" y="450" width="178" height="246" rx="24" fill="#FFFFFF" stroke="#C5D7EB"/>
    <text x="258" y="488" fill="#102033" font-family="Segoe UI, Inter, Arial" font-size="19" font-weight="700">
      Tabela
    </text>
    <rect x="258" y="512" width="122" height="28" rx="10" fill="#154E86"/>
    <text x="319" y="531" text-anchor="middle" fill="#FFFFFF" font-family="Segoe UI, Inter, Arial" font-size="13" font-weight="700">
      CABECALHO
    </text>
    <rect x="258" y="556" width="122" height="18" rx="9" fill="#F3F8FF"/>
    <rect x="258" y="585" width="122" height="18" rx="9" fill="#DBEEFF"/>
    <rect x="258" y="585" width="78" height="18" rx="9" fill="#2563EB" opacity="0.86"/>
    <rect x="258" y="614" width="122" height="18" rx="9" fill="#F3F8FF"/>

    <rect x="422" y="450" width="178" height="246" rx="24" fill="#FFFFFF" stroke="#C5D7EB"/>
    <text x="450" y="488" fill="#102033" font-family="Segoe UI, Inter, Arial" font-size="19" font-weight="700">
      Status
    </text>
    <circle cx="460" cy="528" r="7" fill="#2563EB"/>
    <text x="476" y="533" fill="#102033" font-family="Segoe UI, Inter, Arial" font-size="15" font-weight="600">
      Em producao
    </text>
    <circle cx="460" cy="567" r="7" fill="#16A34A"/>
    <text x="476" y="572" fill="#102033" font-family="Segoe UI, Inter, Arial" font-size="15" font-weight="600">
      Finalizado
    </text>
    <circle cx="460" cy="606" r="7" fill="#E11D48"/>
    <text x="476" y="611" fill="#102033" font-family="Segoe UI, Inter, Arial" font-size="15" font-weight="600">
      Cancelado
    </text>

    <text x="320" y="784" text-anchor="middle" fill="#D5E4F4" font-family="Segoe UI, Inter, Arial" font-size="15">
      Resultado: claro mais executivo, menos "tech ciano", sem perder destaque.
    </text>
  </g>

  <g transform="translate(880 150)">
    <text x="320" y="-18" text-anchor="middle" fill="#E8F1FB" font-family="Segoe UI, Inter, Arial" font-size="24" font-weight="700">
      Tema escuro
    </text>
    <text x="320" y="14" text-anchor="middle" fill="#9FB4CC" font-family="Segoe UI, Inter, Arial" font-size="16">
      Cobalto proposto: PRIMARY #3B82F6 | NEON #3B82F6
    </text>

    <rect x="0" y="40" width="640" height="700" rx="28" fill="#06101B"/>
    <rect x="0" y="40" width="190" height="700" rx="28" fill="#08111F"/>

    <text x="28" y="92" fill="#FFFFFF" font-family="Segoe UI, Inter, Arial" font-size="26" font-weight="700">
      Ferragens Pinheiro
    </text>

    <rect x="22" y="132" width="146" height="44" rx="12" fill="#13304A" stroke="#3B82F6" stroke-width="2.5"/>
    <text x="44" y="160" fill="#F8FAFC" font-family="Segoe UI, Inter, Arial" font-size="16" font-weight="700">
      Nova requisicao
    </text>

    <rect x="22" y="188" width="146" height="44" rx="12" fill="rgba(255,255,255,0.06)"/>
    <text x="44" y="216" fill="#C7D5E5" font-family="Segoe UI, Inter, Arial" font-size="16" font-weight="600">
      Atualizacoes
    </text>

    <rect x="22" y="244" width="146" height="44" rx="12" fill="rgba(255,255,255,0.06)"/>
    <text x="44" y="272" fill="#C7D5E5" font-family="Segoe UI, Inter, Arial" font-size="16" font-weight="600">
      Configuracoes
    </text>

    <rect x="230" y="88" width="370" height="118" rx="24" fill="#0B1324" stroke="#24364F"/>
    <text x="258" y="128" fill="#F8FAFC" font-family="Segoe UI, Inter, Arial" font-size="25" font-weight="700">
      Dashboard
    </text>
    <text x="258" y="156" fill="#93A4BD" font-family="Segoe UI, Inter, Arial" font-size="15">
      O dark perde o ciano intenso e fica mais sobrio e premium.
    </text>

    <rect x="258" y="171" width="126" height="10" rx="5" fill="#10203A"/>
    <rect x="258" y="171" width="94" height="10" rx="5" fill="#3B82F6"/>

    <g filter="url(#glowDark)">
      <rect x="230" y="236" width="370" height="178" rx="26" fill="#0B1324" stroke="#3B82F6" stroke-width="2.5"/>
    </g>
    <text x="258" y="278" fill="#F8FAFC" font-family="Segoe UI, Inter, Arial" font-size="23" font-weight="700">
      Cards neon
    </text>
    <text x="258" y="307" fill="#93A4BD" font-family="Segoe UI, Inter, Arial" font-size="15">
      Glow azul cobalto com cara mais industrial e menos "turquesa".
    </text>
    <rect x="258" y="332" width="136" height="42" rx="14" fill="url(#darkButton)"/>
    <text x="326" y="359" text-anchor="middle" fill="#F8FAFC" font-family="Segoe UI, Inter, Arial" font-size="16" font-weight="700">
      Acao primaria
    </text>
    <rect x="412" y="332" width="138" height="42" rx="14" fill="#10203A" stroke="#3B82F6" stroke-width="1.5"/>
    <text x="481" y="359" text-anchor="middle" fill="#93C5FD" font-family="Segoe UI, Inter, Arial" font-size="16" font-weight="700">
      Secundaria
    </text>
    <rect x="258" y="389" width="292" height="1" fill="#24364F"/>

    <rect x="258" y="412" width="122" height="38" rx="19" fill="#133452"/>
    <text x="319" y="436" text-anchor="middle" fill="#93C5FD" font-family="Segoe UI, Inter, Arial" font-size="15" font-weight="700">
      Selecionado
    </text>
    <rect x="392" y="412" width="158" height="38" rx="19" fill="#10203A"/>
    <text x="471" y="436" text-anchor="middle" fill="#93A4BD" font-family="Segoe UI, Inter, Arial" font-size="15" font-weight="600">
      Notificacao badge
    </text>
    <circle cx="534" cy="421" r="7" fill="#3B82F6"/>

    <rect x="230" y="450" width="178" height="246" rx="24" fill="#0B1324" stroke="#24364F"/>
    <text x="258" y="488" fill="#F8FAFC" font-family="Segoe UI, Inter, Arial" font-size="19" font-weight="700">
      Tabela
    </text>
    <rect x="258" y="512" width="122" height="28" rx="10" fill="#1C3B63"/>
    <text x="319" y="531" text-anchor="middle" fill="#F8FAFC" font-family="Segoe UI, Inter, Arial" font-size="13" font-weight="700">
      CABECALHO
    </text>
    <rect x="258" y="556" width="122" height="18" rx="9" fill="#10203A"/>
    <rect x="258" y="585" width="122" height="18" rx="9" fill="#133452"/>
    <rect x="258" y="585" width="82" height="18" rx="9" fill="#3B82F6" opacity="0.88"/>
    <rect x="258" y="614" width="122" height="18" rx="9" fill="#10203A"/>

    <rect x="422" y="450" width="178" height="246" rx="24" fill="#0B1324" stroke="#24364F"/>
    <text x="450" y="488" fill="#F8FAFC" font-family="Segoe UI, Inter, Arial" font-size="19" font-weight="700">
      Status
    </text>
    <circle cx="460" cy="528" r="7" fill="#3B82F6"/>
    <text x="476" y="533" fill="#F8FAFC" font-family="Segoe UI, Inter, Arial" font-size="15" font-weight="600">
      Em producao
    </text>
    <circle cx="460" cy="567" r="7" fill="#4ADE80"/>
    <text x="476" y="572" fill="#F8FAFC" font-family="Segoe UI, Inter, Arial" font-size="15" font-weight="600">
      Finalizado
    </text>
    <circle cx="460" cy="606" r="7" fill="#FB7185"/>
    <text x="476" y="611" fill="#F8FAFC" font-family="Segoe UI, Inter, Arial" font-size="15" font-weight="600">
      Cancelado
    </text>

    <text x="320" y="784" text-anchor="middle" fill="#D5E4F4" font-family="Segoe UI, Inter, Arial" font-size="15">
      Resultado: escuro mais serio e "metalico", com destaque forte sem puxar para o ciano.
    </text>
  </g>
</svg>
